<svg xmlns="http://www.w3.org/2000/svg" width="900" height="180" viewBox="0 0 900 180" fill="none">
  <rect width="900" height="180" rx="28" fill="#F7F4EF"/>
  <defs><style>.label{font:600 14px Inter,Arial,sans-serif;fill:#1D2A31}.sub{font:12px Inter,Arial,sans-serif;fill:#6E7A80}.line{stroke:#1D2A31;stroke-width:3;stroke-linecap:round;stroke-linejoin:round}</style></defs>
  <g transform="translate(55 35)"><circle cx="45" cy="45" r="42" fill="#FBEDE7"/><path class="line" d="M26 55h38M31 55V42m28 13V42M35 42h20m-24 0c0-10 8-18 18-18s18 8 18 18"/><text class="label" x="45" y="112" text-anchor="middle">Strength</text><text class="sub" x="45" y="132" text-anchor="middle">Training</text></g>
  <g transform="translate(225 35)"><circle cx="45" cy="45" r="42" fill="#EAF6EE"/><path class="line" d="M31 65V41m28 24V41M27 41h36M34 31c4 0 8 3 11 10 3-7 7-10 11-10" stroke="#42A66B"/><path d="M45 41v24" stroke="#42A66B" stroke-width="3" stroke-linecap="round"/><text class="label" x="45" y="112" text-anchor="middle">Vitality</text><text class="sub" x="45" y="132" text-anchor="middle">Nutrition</text></g>
  <g transform="translate(395 35)"><circle cx="45" cy="45" r="42" fill="#EAF3FA"/><path d="M25 31c10-5 18-3 20 4 2-7 10-9 20-4v34c-10-5-18-3-20 4-2-7-10-9-20-4V31Z" stroke="#2E6F9E" stroke-width="3" stroke-linejoin="round"/><path d="M45 35v34M32 42h6m14 0h6M32 52h6m14 0h6" stroke="#2E6F9E" stroke-width="2.5" stroke-linecap="round"/><text class="label" x="45" y="112" text-anchor="middle">Intelligence</text><text class="sub" x="45" y="132" text-anchor="middle">Reading</text></g>
  <g transform="translate(565 35)"><circle cx="45" cy="45" r="42" fill="#F0EEFA"/><path d="M45 26v39M32 48c0 9 6 16 13 16s13-7 13-16M35 35c4 4 7 6 10 6s6-2 10-6M29 66h32" stroke="#7E6BC4" stroke-width="3" stroke-linecap="round" stroke-linejoin="round"/><text class="label" x="45" y="112" text-anchor="middle">Spirit</text><text class="sub" x="45" y="132" text-anchor="middle">Meditation</text></g>
  <g transform="translate(735 35)"><circle cx="45" cy="45" r="42" fill="#FBF3E4"/><path d="M45 25c12 8 19 18 19 28 0 10-8 18-19 18S26 63 26 53c0-10 7-20 19-28Z" stroke="#D8A33F" stroke-width="3" stroke-linejoin="round"/><path d="M35 53h20M38 43h14M42 62h6" stroke="#D8A33F" stroke-width="3" stroke-linecap="round"/><text class="label" x="45" y="112" text-anchor="middle">Sense</text><text class="sub" x="45" y="132" text-anchor="middle">Recovery</text></g>
</svg>
