<svg xmlns="http://www.w3.org/2000/svg" width="360" height="360" viewBox="0 0 360 360" fill="none">
  <rect x="10" y="10" width="340" height="340" rx="28" fill="#FFFFFF" stroke="#E5E0D8"/>
  <text x="32" y="52" font-family="Inter, Arial, sans-serif" font-size="20" font-weight="700" fill="#1D2A31">Nutrition</text>
  <circle cx="130" cy="172" r="74" stroke="#EEF1F0" stroke-width="18"/>
  <path d="M130 98a74 74 0 0 1 70 50" stroke="#5FA8DC" stroke-width="18" stroke-linecap="round"/>
  <path d="M200 148a74 74 0 0 1-34 88" stroke="#42A66B" stroke-width="18" stroke-linecap="round"/>
  <path d="M166 236a74 74 0 0 1-104-40" stroke="#D8A33F" stroke-width="18" stroke-linecap="round"/>
  <path d="M62 196a74 74 0 0 1 18-72" stroke="#7E6BC4" stroke-width="18" stroke-linecap="round"/>
  <text x="130" y="168" text-anchor="middle" font-family="Inter, Arial, sans-serif" font-size="32" font-weight="750" fill="#1D2A31">1,920</text><text x="130" y="194" text-anchor="middle" font-family="Inter, Arial, sans-serif" font-size="13" fill="#6E7A80">of 2,300 kcal</text>
  <g font-family="Inter, Arial, sans-serif" font-size="13" fill="#1D2A31"><circle cx="240" cy="122" r="6" fill="#5FA8DC"/><text x="256" y="126">Protein 120g</text><circle cx="240" cy="154" r="6" fill="#42A66B"/><text x="256" y="158">Carbs 210g</text><circle cx="240" cy="186" r="6" fill="#D8A33F"/><text x="256" y="190">Fats 65g</text><circle cx="240" cy="218" r="6" fill="#7E6BC4"/><text x="256" y="222">Fiber 28g</text></g>
</svg>
