<svg xmlns="http://www.w3.org/2000/svg" width="430" height="430" viewBox="0 0 430 430" fill="none">
  <rect x="16" y="16" width="398" height="398" rx="28" fill="#FFFFFF" stroke="#E5E0D8"/>
  <text x="40" y="62" font-family="Inter, Arial, sans-serif" font-size="20" font-weight="700" fill="#1D2A31">Five Fields Overview</text>
  <g transform="translate(215 218)">
    <g stroke="#D9DEE1" stroke-width="1">
      <polygon points="0,-120 114,-37 71,97 -71,97 -114,-37"/>
      <polygon points="0,-96 91,-30 57,78 -57,78 -91,-30"/>
      <polygon points="0,-72 68,-22 43,58 -43,58 -68,-22"/>
      <polygon points="0,-48 46,-15 28,39 -28,39 -46,-15"/>
      <polygon points="0,-24 23,-7 14,19 -14,19 -23,-7"/>
      <line x1="0" y1="0" x2="0" y2="-120"/><line x1="0" y1="0" x2="114" y2="-37"/><line x1="0" y1="0" x2="71" y2="97"/><line x1="0" y1="0" x2="-71" y2="97"/><line x1="0" y1="0" x2="-114" y2="-37"/>
    </g>
    <polygon points="0,-94 82,-27 46,63 -59,81 -91,-30" fill="#2E6F9E" fill-opacity="0.28" stroke="#2E6F9E" stroke-width="3"/>
    <g fill="#2E6F9E"><circle cy="-94" r="4"/><circle cx="82" cy="-27" r="4"/><circle cx="46" cy="63" r="4"/><circle cx="-59" cy="81" r="4"/><circle cx="-91" cy="-30" r="4"/></g>
  </g>
  <g font-family="Inter, Arial, sans-serif" font-size="13" font-weight="600">
    <text x="215" y="86" text-anchor="middle" fill="#D87757">Strength 78</text><text x="342" y="181" fill="#42A66B">Vitality 72</text><text x="306" y="342" fill="#D8A33F">Sense 65</text><text x="82" y="342" fill="#7E6BC4">Spirit 80</text><text x="38" y="181" fill="#2E6F9E">Intelligence 85</text>
  </g>
</svg>
