<svg xmlns="http://www.w3.org/2000/svg" width="760" height="450" viewBox="0 0 760 450" fill="none">
  <rect width="760" height="450" rx="28" fill="#F7F4EF"/>
  <text x="40" y="58" font-family="Inter, Arial, sans-serif" font-size="24" font-weight="700" fill="#1D2A31">Professional Quest Rows</text>
  <g transform="translate(40 90)">
    <rect width="680" height="72" rx="18" fill="#FFFFFF" stroke="#E5E0D8"/>
    <circle cx="36" cy="36" r="22" fill="#FBEDE7"/><path d="M24 41h24M29 41V31m14 10V31M32 31h8" stroke="#D87757" stroke-width="2.5" stroke-linecap="round"/>
    <text x="78" y="31" font-family="Inter, Arial, sans-serif" font-size="16" font-weight="700" fill="#1D2A31">Strength Training</text><text x="78" y="53" font-family="Inter, Arial, sans-serif" font-size="13" fill="#6E7A80">Log your workout</text><text x="554" y="42" font-family="Inter, Arial, sans-serif" font-size="14" fill="#1D2A31">1 / 1</text><path d="M628 37l10 10 20-24" stroke="#42A66B" stroke-width="3" stroke-linecap="round" stroke-linejoin="round"/>
  </g>
  <g transform="translate(40 180)">
    <rect width="680" height="72" rx="18" fill="#FFFFFF" stroke="#E5E0D8"/>
    <circle cx="36" cy="36" r="22" fill="#EAF6EE"/><path d="M27 43V31m18 12V31M24 31h24M32 25c3 0 6 2 9 6 3-4 6-6 9-6" stroke="#42A66B" stroke-width="2.5" stroke-linecap="round"/>
    <text x="78" y="31" font-family="Inter, Arial, sans-serif" font-size="16" font-weight="700" fill="#1D2A31">Nutrition</text><text x="78" y="53" font-family="Inter, Arial, sans-serif" font-size="13" fill="#6E7A80">Hit your protein goal</text><rect x="450" y="44" width="118" height="5" rx="2.5" fill="#EEF1F0"/><rect x="450" y="44" width="94" height="5" rx="2.5" fill="#42A66B"/><text x="584" y="42" font-family="Inter, Arial, sans-serif" font-size="14" fill="#1D2A31">120 / 150g</text>
  </g>
  <g transform="translate(40 270)">
    <rect width="680" height="72" rx="18" fill="#FFFFFF" stroke="#E5E0D8"/>
    <circle cx="36" cy="36" r="22" fill="#EAF3FA"/><path d="M23 26c8-4 14-2 16 3 2-5 8-7 16-3v28c-8-4-14-2-16 3-2-5-8-7-16-3V26Z" stroke="#2E6F9E" stroke-width="2.5" stroke-linejoin="round"/>
    <text x="78" y="31" font-family="Inter, Arial, sans-serif" font-size="16" font-weight="700" fill="#1D2A31">Intelligence</text><text x="78" y="53" font-family="Inter, Arial, sans-serif" font-size="13" fill="#6E7A80">Read or learn for 20 minutes</text><rect x="450" y="44" width="118" height="5" rx="2.5" fill="#EEF1F0"/><rect x="450" y="44" width="118" height="5" rx="2.5" fill="#2E6F9E"/><text x="584" y="42" font-family="Inter, Arial, sans-serif" font-size="14" fill="#1D2A31">20 / 20m</text>
  </g>
  <g transform="translate(40 360)">
    <rect width="680" height="54" rx="18" fill="#1D2A31"/>
    <text x="340" y="34" text-anchor="middle" font-family="Inter, Arial, sans-serif" font-size="16" font-weight="700" fill="#FFFFFF">+ Add Exercise</text>
  </g>
</svg>
