<svg xmlns="http://www.w3.org/2000/svg" width="760" height="480" viewBox="0 0 760 480" fill="none">
  <rect width="760" height="480" rx="32" fill="#F7F4EF"/>
  <text x="48" y="70" font-family="Inter, Arial, sans-serif" font-size="28" font-weight="700" fill="#1D2A31">Professional Wellness Theme Tokens</text>
  <text x="48" y="110" font-family="Inter, Arial, sans-serif" font-size="15" fill="#5F6B72">Neutral, mature, accessible palette for fitness, nutrition, reflection, learning, and community.</text>
  <g font-family="Inter, Arial, sans-serif" font-size="14" fill="#1D2A31">
    <g transform="translate(48 150)"><rect width="116" height="90" rx="18" fill="#1D2A31"/><text y="124">Ink</text><text y="146" fill="#6E7A80">#1D2A31</text></g>
    <g transform="translate(188 150)"><rect width="116" height="90" rx="18" fill="#EEF1F0" stroke="#DCE2E0"/><text y="124">Surface</text><text y="146" fill="#6E7A80">#EEF1F0</text></g>
    <g transform="translate(328 150)"><rect width="116" height="90" rx="18" fill="#2E6F9E"/><text y="124">Primary</text><text y="146" fill="#6E7A80">#2E6F9E</text></g>
    <g transform="translate(468 150)"><rect width="116" height="90" rx="18" fill="#42A66B"/><text y="124">Success</text><text y="146" fill="#6E7A80">#42A66B</text></g>
    <g transform="translate(608 150)"><rect width="116" height="90" rx="18" fill="#D87757"/><text y="124">Strength</text><text y="146" fill="#6E7A80">#D87757</text></g>
    <g transform="translate(48 330)"><rect width="116" height="90" rx="18" fill="#7E6BC4"/><text y="124">Mind</text><text y="146" fill="#6E7A80">#7E6BC4</text></g>
    <g transform="translate(188 330)"><rect width="116" height="90" rx="18" fill="#D8A33F"/><text y="124">Sense</text><text y="146" fill="#6E7A80">#D8A33F</text></g>
    <g transform="translate(328 330)"><rect width="116" height="90" rx="18" fill="#6CB7D6"/><text y="124">Community</text><text y="146" fill="#6E7A80">#6CB7D6</text></g>
  </g>
</svg>
