<svg xmlns="http://www.w3.org/2000/svg" width="920" height="260" viewBox="0 0 920 260">
<rect width="920" height="260" rx="34" fill="#FFFFFF" stroke="#FBCFE8"/>
<g fill="none" stroke-linecap="round" stroke-linejoin="round">
<path d="M100 190V55M100 140c-52-28-58 24-34 42 20-2 32-16 34-42Zm0-36c52-28 58 24 34 42-20-2-32-16-34-42Z" stroke="#D8B4FE" stroke-width="7"/>
<path d="M245 92l9 21 21 9-21 9-9 21-9-21-21-9 21-9Z" stroke="#F472B6" stroke-width="5"/>
<path d="M360 148c-46-34-18-78 10-48 28-30 56 14 10 48l-10 8Z" stroke="#EC4899" stroke-width="6"/>
<g stroke="#F9A8D4" stroke-width="6"><circle cx="500" cy="92" r="4"/><circle cx="540" cy="112" r="4"/><circle cx="515" cy="145" r="4"/><circle cx="565" cy="160" r="4"/><circle cx="490" cy="180" r="4"/></g>
<circle cx="680" cy="130" r="48" stroke="#FBCFE8" stroke-width="7"/>
<path d="M780 135c42-42 70 42 112 0" stroke="#F472B6" stroke-width="7"/>
</g>
</svg>
