<svg xmlns="http://www.w3.org/2000/svg" width="900" height="180" viewBox="0 0 900 180">
<defs><linearGradient id="g" x1="0" x2="1"><stop stop-color="#F472B6"/><stop offset="1" stop-color="#C084FC"/></linearGradient></defs>
<rect width="900" height="180" rx="28" fill="#FFF7FB"/>
<style>.label{font:600 15px Inter,Arial;fill:#4A244B}.sub{font:13px Inter,Arial;fill:#8A668A}.ico{stroke:#fff;stroke-width:5;stroke-linecap:round;stroke-linejoin:round;fill:none}</style>
<g transform="translate(40 30)"><circle cx="50" cy="50" r="42" fill="#FEE2E2"/><path class="ico" stroke="#FB7185" d="M28 50h44M38 38v24M62 38v24"/><text class="label" x="50" y="122" text-anchor="middle">Strength</text></g>
<g transform="translate(200 30)"><circle cx="50" cy="50" r="42" fill="#DCFCE7"/><path class="ico" stroke="#22C55E" d="M50 72V34M50 44c-16-18-30-6-24 12 14 2 20-4 24-12Zm0 8c16-18 30-6 24 12-14 2-20-4-24-12Z"/><text class="label" x="50" y="122" text-anchor="middle">Vitality</text></g>
<g transform="translate(360 30)"><circle cx="50" cy="50" r="42" fill="#DBEAFE"/><path class="ico" stroke="#60A5FA" d="M25 36c13-8 24-4 25 6 1-10 12-14 25-6v42c-13-8-24-4-25 6-1-10-12-14-25-6Z"/><text class="label" x="50" y="122" text-anchor="middle">Intelligence</text></g>
<g transform="translate(520 30)"><circle cx="50" cy="50" r="42" fill="#F3E8FF"/><path class="ico" stroke="#A855F7" d="M50 24v32M34 56c6 16 26 16 32 0M32 76h36M40 42c-12-6-18 7-7 14M60 42c12-6 18 7 7 14"/><text class="label" x="50" y="122" text-anchor="middle">Spirit</text></g>
<g transform="translate(680 30)"><circle cx="50" cy="50" r="42" fill="#FFEDD5"/><path class="ico" stroke="#FB923C" d="M50 24v10M50 66v10M24 50h10M66 50h10M31 31l7 7M62 62l7 7M69 31l-7 7M38 62l-7 7M50 38a12 12 0 1 1 0 24 12 12 0 0 1 0-24Z"/><text class="label" x="50" y="122" text-anchor="middle">Sensation</text></g>
</svg>
