<svg xmlns="http://www.w3.org/2000/svg" width="780" height="260" viewBox="0 0 780 260">
<rect width="780" height="260" rx="34" fill="#FFF7FB"/>
<style>.l{font:600 15px Inter,Arial;fill:#4A244B}.i{fill:none;stroke-width:5;stroke-linecap:round;stroke-linejoin:round}</style>
<g transform="translate(60 50)"><path class="i" stroke="#FB7185" d="M70 62c-18 36-68 18-58-24C22-4 80 10 70 62Zm0 0c22 6 34-10 42-26"/><text class="l" x="50" y="142" text-anchor="middle">Protein</text></g>
<g transform="translate(230 50)"><path class="i" stroke="#60A5FA" d="M18 58h82l-12 46H30Zm20 0c2-20 11-32 30-32s30 12 32 32"/><path class="i" stroke="#34D399" d="M40 45c8-12 22-20 39-20"/><text class="l" x="60" y="142" text-anchor="middle">Carbs</text></g>
<g transform="translate(420 50)"><path class="i" stroke="#22C55E" d="M62 20c32 8 38 74-8 90-46-16-40-82 8-90Z"/><path class="i" stroke="#84CC16" d="M62 30c-22 22-30 46-20 72"/><text class="l" x="60" y="142" text-anchor="middle">Fats</text></g>
<g transform="translate(600 50)"><path class="i" stroke="#10B981" d="M56 112V18M56 46c-26-22-44 0-36 24 18 2 30-8 36-24Zm0 20c26-22 44 0 36 24-18 2-30-8-36-24Z"/><text class="l" x="56" y="142" text-anchor="middle">Fiber</text></g>
</svg>
