<svg xmlns="http://www.w3.org/2000/svg" width="520" height="520" viewBox="0 0 520 520">
<defs><linearGradient id="fill" x1="0" y1="0" x2="1" y2="1"><stop stop-color="#F472B6" stop-opacity=".5"/><stop offset="1" stop-color="#C084FC" stop-opacity=".38"/></linearGradient></defs>
<rect width="520" height="520" rx="40" fill="#FFF7FB"/>
<g transform="translate(260 270)" fill="none" stroke="#E9D5FF">
<polygon points="0,-180 171,-56 106,146 -106,146 -171,-56"/><polygon points="0,-144 137,-45 85,117 -85,117 -137,-45"/><polygon points="0,-108 103,-34 64,88 -64,88 -103,-34"/><polygon points="0,-72 68,-22 42,58 -42,58 -68,-22"/><line x1="0" y1="0" x2="0" y2="-180"/><line x1="0" y1="0" x2="171" y2="-56"/><line x1="0" y1="0" x2="106" y2="146"/><line x1="0" y1="0" x2="-106" y2="146"/><line x1="0" y1="0" x2="-171" y2="-56"/>
<polygon points="0,-140 123,-40 69,95 -86,119 -145,-47" fill="url(#fill)" stroke="#EC4899" stroke-width="4"/>
<g fill="#EC4899" stroke="white" stroke-width="3"><circle cx="0" cy="-140" r="6"/><circle cx="123" cy="-40" r="6"/><circle cx="69" cy="95" r="6"/><circle cx="-86" cy="119" r="6"/><circle cx="-145" cy="-47" r="6"/></g>
</g>
<g font-family="Inter,Arial" font-size="18" font-weight="700" fill="#4A244B" text-anchor="middle"><text x="260" y="54">Five Fields</text><text x="260" y="86" font-size="14" font-weight="400" fill="#8A668A">Progress radar chart</text></g>
<g font-family="Inter,Arial" font-size="14" fill="#4A244B" text-anchor="middle"><text x="260" y="80"/><text x="260" y="122">Strength 78</text><text x="425" y="230">Vitality 72</text><text x="366" y="445">Sensation 65</text><text x="154" y="445">Spirit 80</text><text x="95" y="230">Intelligence 85</text></g>
</svg>
