<svg width="900" height="260" viewBox="0 0 900 260" fill="none" xmlns="http://www.w3.org/2000/svg">

<defs>
  <linearGradient id="violetGlow" x1="0" y1="0" x2="1" y2="1">
    <stop offset="0%" stop-color="#7C5CFF"/>
    <stop offset="50%" stop-color="#B66CFF"/>
    <stop offset="100%" stop-color="#32D7FF"/>
  </linearGradient>
  <linearGradient id="cardShade" x1="0" y1="0" x2="0" y2="1">
    <stop offset="0%" stop-color="#172033"/>
    <stop offset="100%" stop-color="#090D18"/>
  </linearGradient>
  <filter id="softGlow" x="-50%" y="-50%" width="200%" height="200%">
    <feGaussianBlur stdDeviation="6" result="blur"/>
    <feMerge><feMergeNode in="blur"/><feMergeNode in="SourceGraphic"/></feMerge>
  </filter>
</defs>
<rect x="8" y="8" width="884" height="244" rx="38" fill="url(#cardShade)" stroke="#2B3550" stroke-width="2"/>
<rect x="42" y="46" width="112" height="112" rx="32" fill="#191F35"/>
<circle cx="98" cy="102" r="38" fill="#7C5CFF" opacity=".25" filter="url(#softGlow)"/>
<path d="M98 60 L113 91 L148 96 L123 121 L129 156 L98 139 L67 156 L73 121 L48 96 L83 91 Z" fill="url(#violetGlow)"/>
<text x="188" y="80" fill="#F5F7FF" font-family="Inter,Arial" font-size="32" font-weight="800">Daily Quest</text>
<text x="188" y="123" fill="#AEB7CC" font-family="Inter,Arial" font-size="23">Complete your core habit streak</text>
<rect x="188" y="165" width="420" height="16" rx="8" fill="#2A3146"/>
<rect x="188" y="165" width="312" height="16" rx="8" fill="url(#violetGlow)"/>
<text x="188" y="217" fill="#A98CFF" font-family="Inter,Arial" font-size="25" font-weight="700">+120 EXP</text>
<text x="738" y="112" fill="#70E58C" font-family="Inter,Arial" font-size="56" font-weight="900" text-anchor="middle">✓</text>
<text x="738" y="165" fill="#C9D2E8" font-family="Inter,Arial" font-size="22" text-anchor="middle">4 / 5</text>
</svg>
