<svg width="512" height="512" viewBox="0 0 512 512" fill="none" xmlns="http://www.w3.org/2000/svg">

<defs>
  <linearGradient id="violetGlow" x1="0" y1="0" x2="1" y2="1">
    <stop offset="0%" stop-color="#7C5CFF"/>
    <stop offset="50%" stop-color="#B66CFF"/>
    <stop offset="100%" stop-color="#32D7FF"/>
  </linearGradient>
  <linearGradient id="cardShade" x1="0" y1="0" x2="0" y2="1">
    <stop offset="0%" stop-color="#172033"/>
    <stop offset="100%" stop-color="#090D18"/>
  </linearGradient>
  <filter id="softGlow" x="-50%" y="-50%" width="200%" height="200%">
    <feGaussianBlur stdDeviation="6" result="blur"/>
    <feMerge><feMergeNode in="blur"/><feMergeNode in="SourceGraphic"/></feMerge>
  </filter>
</defs>
<rect width="512" height="512" rx="128" fill="#070A14"/>
<circle cx="256" cy="256" r="174" stroke="url(#violetGlow)" stroke-width="12" opacity=".9"/>
<circle cx="256" cy="256" r="132" stroke="#6E58FF" stroke-width="3" opacity=".35"/>
<path d="M256 76 L314 205 L456 220 L344 312 L378 448 L256 374 L134 448 L168 312 L56 220 L198 205 Z" fill="url(#violetGlow)" opacity=".18" filter="url(#softGlow)"/>
<path d="M256 90 C279 147 306 189 351 219 C316 228 288 248 270 284 L314 431 C294 399 276 375 256 362 C236 375 218 399 198 431 L242 284 C224 248 196 228 161 219 C206 189 233 147 256 90Z" fill="url(#violetGlow)"/>
<path d="M256 146 C269 184 288 212 318 236 C290 241 271 259 256 292 C241 259 222 241 194 236 C224 212 243 184 256 146Z" fill="#EEF4FF" opacity=".9"/>
</svg>
